<?xml version="1.0" encoding="UTF-8"?><svg id="Layer_1" xmlns="http://www.w3.org/2000/svg" viewBox="0 0 523 175"><defs><style>.cls-1{fill:#fc5301;}.cls-2{fill:none;}</style></defs><polygon class="cls-2" points="308.56 74.7 302.24 106.73 313.57 107.06 312.43 104.02 313.2 104.06 310.08 78.4 308.56 74.7"/><path class="cls-2" d="M142.6,104.17l-6.31-35.27-.53,3.87-.87-1.09c-1.5,12.46-3.75,24.91-6.78,37.37l15.31-.32-1.65-4.71.83.15Z"/><path class="cls-2" d="M409.52,56.21l2.25.41c-.74-.19-1.49-.33-2.25-.41Z"/><path class="cls-2" d="M40.47,42.81l-2.22-.96c1.93,8.69,3.05,13.77,5.14,23.15,1.05.07,3.67.05,4.71,0,4.53-.23,9.52-.67,6.92-12.63-2.4-11.01-8.11-12.02-12.36-12.53l7.01,4.39-9.2-1.42Z"/><path class="cls-2" d="M46.25,134.81h0c4.76-.78,11.2-3.74,13.42-15.42,2.64-13.84-3.5-14.27-7.99-14.21-1.1.01-7.56,0-7.56,0l-5.41,28.78,3.96-1.31,3.57,2.16Z"/><path class="cls-1" d="M163.98,106.35l-9.9,2.96-10.66-.58-15.31.32c3.03-12.46,5.28-24.91,6.78-37.37l-3.77-4.74-15.44-3.67,14.11.42-3.36-6.73-8.31-10.26,11.3,8.75,3.32,8.32,3.54,5.13,6.31,35.27,11.4,2.07,9.88-3.06,5.32,1.12-19.3-76.24-34.41-6.35-28.37,140.93,32.28-4.82,5.01-16.87,23.45-2.58,2.76,15.22,29.83-4.87-10.41-41.11-6.07-1.26Z"/><polygon class="cls-1" points="332.92 110.65 323.18 106.75 313.57 107.06 302.24 106.73 308.56 74.7 310.9 64.65 319.43 53.23 322.65 40.65 321.82 54.36 313.57 66.09 310.08 78.4 310.08 78.4 313.2 104.06 323.2 104.55 329.73 102.87 337.07 104.02 330.1 104.61 326.8 105.83 333.13 108.25 341.77 109.31 347.98 111.34 328.69 36.11 294.78 42.52 280.72 88.22 265.44 137.56 297.71 142.38 299.14 130.3 321.59 132.77 325.98 146.61 358.26 151.43 348.38 112.88 342.34 111.59 332.92 110.65"/><path class="cls-1" d="M506.46,55.57L523-.1l-67.05,12.18-10.82,50.33,16.3-2.83,12.01-2.77,13.68-12.3,14.25-29.89-11.47,29.69,11.84,2.02-13.05,1.1-.11.28-14.23,11.08-13.49,4.96c-.87,6.51-1.56,12.76-2.04,18.82l1.89,1,14.44-1.42,11.95,5.59c.55-9.23,1.64-19.27,3.34-30.68l16.01-1.47Z"/><path class="cls-1" d="M461.79,87.87l-3.22-1.79c-1.01,15.17-.68,29.34,1.18,44.09l20.51,5.93,9.07-2.37c-2.3-14.28-3.17-27.93-2.35-44l-12.37-4.04-12.83,2.17Z"/><path class="cls-1" d="M479.48,140.16l-19.17-5.78c1.56,10.74,3.92,21.86,7.19,33.99l30.49,4.55c-3.45-13.41-6.2-24.96-8.13-36l-1.37-.53-9.02,3.75Z"/><path class="cls-1" d="M417.74,105.12l11.2,5.79-17.08-3.4h0l-9.31,1.45c.75.9,1.24,2.22,1.24,4.24,0,5.86-4.87,8.3-7.93,8.64-9.79,1.09-16.79-7.47-21.47-11.59l-8.49,38.03c9.8,6.08,21.58,9.32,32.34,8.13,18.46-2.05,35.04-18.12,36.32-49.13.19-4.72-.1-8.94-.81-12.68l-2.65,4.67-13.38,5.85Z"/><path class="cls-1" d="M387.5,51.8l-6.5-4.84-2.02-8.45c-3.35,5-6.03,11.04-7.77,18.07l9.48-1.47,6.82-3.31Z"/><path class="cls-1" d="M393.17,53.23l16.35,2.98c.76.08,1.51.22,2.25.41l.1.02h0c4.41,1.14,8.51,3.96,12.25,7.4l8.25-34.25c-8.41-6.8-17.27-9.44-27.01-8.36-9.73,1.08-18.89,6.53-25.58,15.91l3.27,7.46,10.14,8.41Z"/><path class="cls-1" d="M429.57,95.4l3.67-3.2c-3.07-12.19-10.92-18.8-20.62-21.04l-7.02-1.63c-2.38-.6-6.23-.86-6.23-5.69,0-3.24,1.45-5.24,3.2-6.39l-10.86-2.52-1.58-1.18-7.62,3.55-11.79,1.35c-.91,4.22-1.49,8.77-1.69,13.64-.84,20.33,9.51,31.46,21.63,33.39l6.23,1.03,13.94-2.16,18.75-9.16Z"/><polygon class="cls-1" points="230.08 110.38 221.93 111.37 217.4 123.24 212.99 125.97 207.08 135.77 210.48 123.9 216.01 121.18 219.2 111.04 207.08 104.02 222.08 108.81 229.75 105.99 226.77 66.04 224.24 63.87 212.56 63.17 197.42 50.6 214.81 60.54 225.1 60.77 226.47 62.09 225.03 42.71 194.36 36.92 197.43 146.17 253.53 137.79 253.98 109.35 230.08 110.38"/><path class="cls-1" d="M72.14,83.7l-5.44-.85-7.99,3.17-5.42-2.02-10.09,3.97-10.07,7.24,8.96-10.04,8.68-2.99-7.57-8.02,10.07,6.3,5.59,2.13,7.66-3.2,5.91,1.23c9.41-9,12.03-16.53,10.08-33.29-2.77-23.79-12.88-33.59-37.2-38.03C31.03,6.62,0-.1,0-.1,0-.1,7.71,13.15,13.04,36.85l10.15-2.96-8.51-12.79,14.12,11.92,13.86,6.82h0c4.24.51,9.96,1.51,12.36,12.53,2.6,11.96-2.39,12.4-6.92,12.63-1.05.05-3.67.07-4.71,0-2.08-9.38-3.21-14.46-5.14-23.15l-12.62-5.46-11.81,4.12c2.42,11.82,4.18,25.98,4.18,42.19,0,21.25-2.78,40.64-6.07,56.15l12.37,2.49,6.98-4.94,7.43-2.45,5.41-28.78s6.46.02,7.56,0c4.49-.06,10.62.37,7.99,14.21-2.23,11.68-8.66,14.64-13.42,15.42l-12.36,3.67-7.77,5.84-14.82-2.5c-4.6,20.62-9.87,33.61-9.87,33.61,0,0,30.05-4.68,43.88-6.75,22.17-4.38,34.09-22.06,37.27-42.86,2.72-17.81,1.68-33.37-10.44-42.13Z"/></svg>